<svg height="512" viewBox="0 0 60 60" width="512" xmlns="http://www.w3.org/2000/svg"><g id="Page-1" fill="none" fill-rule="evenodd"><g id="004---Brain-Analysis" fill="rgb(0,0,0)" fill-rule="nonzero"><path id="Shape" d="m41 0c-9.5177959-.00761875-17.5707557 7.03244777-18.8349565 16.4659144-1.2642009 9.4334667 4.6509892 18.3454375 13.8349565 20.8440856v18.19c0 2.4852814 2.0147186 4.5 4.5 4.5s4.5-2.0147186 4.5-4.5v-17.932c9.4832082-2.0574532 15.8921322-10.9303585 14.8647375-20.5796492-1.0273946-9.64929079-9.1609166-16.97380953-18.8647375-16.9883508zm-3 43h5v9h-5zm2.5 15c-1.3807119 0-2.5-1.1192881-2.5-2.5v-1.5h5v1.5c0 1.3807119-1.1192881 2.5-2.5 2.5zm2.5-17h-5v-3.261c.9914664.1666532 1.9946498.2539301 3 .261.6680766-.0007594 1.3356559-.0364749 2-.107zm-2-5c-9.3888407 0-17-7.6111593-17-17 0-9.38884075 7.6111593-17 17-17s17 7.61115925 17 17c-.010471 9.3845001-7.6154999 16.989529-17 17z"/><path id="Shape" d="m41 4c-8.2842712 0-15 6.7157288-15 15s6.7157288 15 15 15 15-6.7157288 15-15c-.0093685-8.2803876-6.7196124-14.99063148-15-15zm0 28c-7.1797017 0-13-5.8202983-13-13s5.8202983-13 13-13 13 5.8202983 13 13c-.008266 7.1762751-5.8237249 12.991734-13 13z"/><path id="Shape" d="m4.245 47.733c-.52270137 1.8497101-.19992285 3.8359151.88160495 5.4249216s2.81088569 2.6178493 4.72339505 2.8100784c1.2656892 2.4312321 3.7580119 3.9772209 6.4984439 4.0309876 2.740432.0537666 5.2914772-1.3932725 6.6515561-3.7729876 1.334489 2.3312371 3.8138285 3.7707798 6.5 3.774 1.5997351.0060758 3.1578227-.5096589 4.438-1.469.4418278-.3313708.5313708-.9581722.2-1.4s-.9581722-.5313708-1.4-.2c-.9344626.6987847-2.0711689 1.0740593-3.238 1.069-3.0375661 0-5.5-2.4624339-5.5-5.5s2.4624339-5.5 5.5-5.5c.5522847 0 1-.4477153 1-1s-.4477153-1-1-1c-2.0908965.0009632-4.0857347.8779666-5.5 2.418v-15.798c0-.5522847-.4477153-1-1-1s-1 .4477153-1 1v20.88c-.0000953 2.6217456-1.8507056 4.8789598-4.4215574 5.393033-2.5708518.5140731-5.1471669-.8579235-6.1554426-3.278033-.1553781-.3724703-.5194204-.6150337-.923-.615-2.48413909-.0027556-4.49724444-2.0158609-4.5-4.5-.0030039-.7135645.16865525-1.4170237.5-2.049.15920542-.2984273.1567651-.657108-.00648615-.9533414-.16325126-.2962335-.46518529-.4898662-.80251385-.5146586-2.07953985-.1645003-3.68500184-1.8969726-3.691-3.983-.00016634-.9349401.33072-1.8397407.934-2.554 1.3077202 1.0097073 2.91383916 1.5563365 4.566 1.554.55228475 0 1-.4477153 1-1s-.44771525-1-1-1c-2.29081914-.000464-4.34146227-1.4207985-5.14733413-3.5651919-.80587185-2.1443934-.19819497-4.5637355 1.52533413-6.0728081.26523669-.2667657.38032893-.6480321.307-1.017-.12181852-.4379847-.1840454-.8903909-.185-1.345 0-2.7614237 2.23857625-5 5-5 2.7614237 0 5 2.2385763 5 5 0 .5522847.4477153 1 1 1s1-.4477153 1-1c-.0045507-3.7289696-2.931533-6.7997504-6.656-6.983-.43070067-.8968393-.45937222-1.9345955-.07884725-2.8538476s1.13428285-1.6331212 2.07284725-1.9631524c.3720036-.1365676.7657443-.2043371 1.162-.2.9282577 0 1.8184964.3687489 2.4748737 1.0251263.6563774.6563773 1.0251263 1.546616 1.0251263 2.4748737 0 .5522847.4477153 1 1 1s1-.4477153 1-1c-.0036528-2.3657153-1.5180904-4.4646726-3.762-5.214 3.565-2.153 5.37-2.145 6.188-1.883.3453724.1286226.7334974.0568533 1.0100369-.1867688.2765396-.2436221.396664-.6196034.3126056-.978435-.0840583-.35883153-.3586726-.64234304-.7146425-.7377962-2.434-.779-5.892.5-10.56 3.906-2.71222942 1.0574486-4.1165533 4.0579752-3.191 6.818-3.60108996.8652278-5.87511975 4.4211039-5.15 8.053-2.59329273 2.647061-2.852554 6.7956671-.609 9.745-.98202985 1.0921707-1.52492402 2.5092527-1.524 3.978.00912213 2.6336571 1.72859678 4.9558592 4.245 5.733z"/><path id="Shape" d="m18.8 30.389c-.3904999-.3903819-1.0235001-.3903819-1.414 0-1.573266 1.5707718-3.9374602 2.0399314-5.9913103 1.1889381-2.05385017-.8509933-3.39340785-2.8547673-3.3946897-5.0779381 0-.5522847-.44771525-1-1-1s-1 .4477153-1 1c.00625497 3.4631492 2.38045163 6.4727233 5.747 7.285-.4763452 1.2019535-1.5747288 2.0448544-2.859 2.194-.52833467.0581209-.91888597.5193982-.88907816 1.0500836.02980781.5306855.46955809.9453259 1.00107816.9439164.03674755-.0000325.07346693-.0020354.11-.006 2.2253284-.255421 4.0770065-1.8275708 4.69-3.982 1.8833773-.0682218 3.6705477-.8492153 5-2.185.3883868-.3901539.3883868-1.0208461 0-1.411z"/><path id="Shape" d="m18 41c.5522847 0 1-.4477153 1-1s-.4477153-1-1-1c-3.8641657.0044086-6.9955914 3.1358343-7 7 0 .027.005.054.005.081-.332593-.0513313-.6684792-.0784027-1.005-.081-.55228475 0-1 .4477153-1 1s.44771525 1 1 1c2.7600532.0033061 4.9966939 2.2399468 5 5 0 .5522847.4477153 1 1 1s1-.4477153 1-1c-.0037171-2.6770361-1.5339198-5.1175191-3.942-6.287-.0367719-.2359251-.0561574-.4742335-.058-.713.0033061-2.7600532 2.2399468-4.9966939 5-5z"/><path id="Shape" d="m38 9c-2.209139 0-4 1.790861-4 4s1.790861 4 4 4 4-1.790861 4-4c0-1.060866-.4214274-2.0782816-1.1715729-2.8284271-.7501455-.75014554-1.7675611-1.1715729-2.8284271-1.1715729zm0 6c-1.1045695 0-2-.8954305-2-2s.8954305-2 2-2 2 .8954305 2 2-.8954305 2-2 2z"/><circle id="Oval" cx="33" cy="18" r="1"/></g></g></svg>